# Blender v2.91.0 OBJ File: 'brickPath.blend'
# www.blender.org
mtllib brickPath.mtl
o Cube.001_Cube.003
v -0.861598 0.066685 -0.913135
v -0.861598 -0.228962 -0.913135
v -0.861598 0.066685 0.000000
v -0.861598 -0.228962 0.000000
v -1.400097 0.066685 -0.913135
v -1.400097 -0.228962 -0.913135
v -1.400097 0.066685 0.000000
v -1.400097 -0.228962 0.000000
v -0.293890 0.054014 -0.846745
v -0.296174 -0.228962 -0.848277
v -0.298546 0.070088 0.066236
v -0.296174 -0.228962 0.064858
v -0.832301 0.063283 -0.849655
v -0.834673 -0.228962 -0.848277
v -0.836958 0.079356 0.063326
v -0.834673 -0.228962 0.064858
v 0.269249 0.066685 -0.891461
v 0.269249 -0.228962 -0.891461
v 0.269249 0.066685 0.021674
v 0.269249 -0.228962 0.021674
v -0.269249 0.066685 -0.891461
v -0.269249 -0.228962 -0.891461
v -0.269249 0.066685 0.021674
v -0.269249 -0.228962 0.021674
v 0.826518 0.037102 -0.916897
v 0.834673 -0.228962 -0.913135
v 0.842075 0.122270 -0.007876
v 0.834673 -0.228962 0.000000
v 0.288773 0.011101 -0.905258
v 0.296174 -0.228962 -0.913135
v 0.304330 0.096269 0.003763
v 0.296174 -0.228962 0.000000
v 1.425355 0.066685 -0.888515
v 1.425355 -0.228962 -0.888515
v 1.425355 0.066685 0.024619
v 1.425355 -0.228962 0.024619
v 0.886856 0.066685 -0.888515
v 0.886856 -0.228962 -0.888515
v 0.886856 0.066685 0.024619
v 0.886856 -0.228962 0.024619
v -0.926510 0.075949 -1.874241
v -0.922384 -0.228962 -1.871926
v -0.918307 0.052063 -0.961456
v -0.922384 -0.228962 -0.958791
v -1.464960 0.081308 -1.869261
v -1.460883 -0.228962 -1.871926
v -1.456756 0.057422 -0.956476
v -1.460883 -0.228962 -0.958791
v -0.332689 0.074565 -1.878831
v -0.333010 -0.228962 -1.879076
v -0.308712 0.044057 -0.966521
v -0.308189 -0.228962 -0.966279
v -0.870787 0.089314 -1.864196
v -0.871310 -0.228962 -1.864438
v -0.846810 0.058806 -0.951886
v -0.846488 -0.228962 -0.951641
v 0.271789 0.087248 -1.869954
v 0.269249 -0.228962 -1.871926
v 0.266496 0.060889 -0.957215
v 0.269249 -0.228962 -0.958791
v -0.266496 0.072481 -1.873502
v -0.269249 -0.228962 -1.871926
v -0.271789 0.046122 -0.960763
v -0.269249 -0.228962 -0.958791
v 0.834673 0.066685 -1.871926
v 0.834673 -0.228962 -1.871926
v 0.834673 0.066685 -0.958791
v 0.834673 -0.228962 -0.958791
v 0.296174 0.066685 -1.871926
v 0.296174 -0.228962 -1.871926
v 0.296174 0.066685 -0.958791
v 0.296174 -0.228962 -0.958791
v 1.396748 0.074182 -1.873823
v 1.400097 -0.228962 -1.871926
v 1.403413 0.054837 -0.960918
v 1.400097 -0.228962 -0.958791
v 0.858282 0.078534 -1.869799
v 0.861598 -0.228962 -1.871926
v 0.864947 0.059189 -0.956894
v 0.861598 -0.228962 -0.958791
v -0.855239 0.071536 -2.826880
v -0.861598 -0.228962 -2.830717
v -0.869278 0.098835 -1.914262
v -0.861598 -0.228962 -1.917582
v -1.392417 0.034536 -2.834037
v -1.400097 -0.228962 -2.830717
v -1.406457 0.061834 -1.921419
v -1.400097 -0.228962 -1.917582
v -0.291259 0.082094 -2.827520
v -0.296174 -0.228962 -2.830717
v -0.302341 0.087419 -1.914469
v -0.296174 -0.228962 -1.917582
v -0.828506 0.045952 -2.833831
v -0.834673 -0.228962 -2.830717
v -0.839589 0.051277 -1.920779
v -0.834673 -0.228962 -1.917582
v 0.270450 0.071680 -2.829979
v 0.269249 -0.228962 -2.830717
v 0.268031 0.057462 -1.916959
v 0.269249 -0.228962 -1.917582
v -0.268031 0.075909 -2.831340
v -0.269249 -0.228962 -2.830717
v -0.270450 0.061691 -1.918320
v -0.269249 -0.228962 -1.917582
v 0.834673 0.066685 -2.830717
v 0.834673 -0.228962 -2.830717
v 0.834673 0.066685 -1.917582
v 0.834673 -0.228962 -1.917582
v 0.296174 0.066685 -2.830717
v 0.296174 -0.228962 -2.830717
v 0.296174 0.066685 -1.917582
v 0.296174 -0.228962 -1.917582
v 1.433094 0.084335 -2.835497
v 1.441967 -0.228962 -2.830717
v 1.447613 0.107052 -1.922761
v 1.441967 -0.228962 -1.917582
v 0.897822 0.026318 -2.825538
v 0.903468 -0.228962 -2.830717
v 0.912342 0.049035 -1.912802
v 0.903468 -0.228962 -1.917582
v -0.927864 0.066685 -3.789508
v -0.927864 -0.228962 -3.789508
v -0.927864 0.066685 -2.876374
v -0.927864 -0.228962 -2.876374
v -1.466363 0.066685 -3.789508
v -1.466363 -0.228962 -3.789508
v -1.466363 0.066685 -2.876374
v -1.466363 -0.228962 -2.876374
v -0.316128 0.057396 -3.790658
v -0.314007 -0.228962 -3.789508
v -0.311948 0.083739 -2.877913
v -0.314007 -0.228962 -2.876374
v -0.854564 0.049632 -3.787968
v -0.852506 -0.228962 -3.789508
v -0.850384 0.075975 -2.875224
v -0.852506 -0.228962 -2.876374
v 0.291693 0.090655 -3.774857
v 0.296497 -0.228962 -3.772302
v 0.245804 0.060419 -2.863377
v 0.241007 -0.228962 -2.860856
v -0.245804 0.072952 -3.802505
v -0.241007 -0.228962 -3.805026
v -0.291693 0.042716 -2.891025
v -0.296497 -0.228962 -2.893579
v 0.863387 0.074567 -3.786936
v 0.859185 -0.228962 -3.789508
v 0.854680 0.076124 -2.873844
v 0.859185 -0.228962 -2.876374
v 0.325191 0.057246 -3.792038
v 0.320686 -0.228962 -3.789508
v 0.316484 0.058804 -2.878946
v 0.320686 -0.228962 -2.876374
v 1.439816 0.056111 -3.786485
v 1.434958 -0.228962 -3.789508
v 1.430035 0.083614 -2.873817
v 1.434958 -0.228962 -2.876374
v 0.901383 0.049757 -3.792064
v 0.896459 -0.228962 -3.789508
v 0.891602 0.077260 -2.879396
v 0.896459 -0.228962 -2.876374
v -0.867014 0.050578 -4.751168
v -0.861598 -0.228962 -4.748299
v -0.856786 0.057979 -3.838121
v -0.861598 -0.228962 -3.835165
v -1.404909 0.075391 -4.745343
v -1.400097 -0.228962 -4.748299
v -1.394681 0.082792 -3.832296
v -1.400097 -0.228962 -3.835165
v -0.288722 0.050601 -4.743536
v -0.296174 -0.228962 -4.748299
v -0.303781 0.092538 -3.831489
v -0.296174 -0.228962 -3.835165
v -0.827066 0.040833 -4.751975
v -0.834673 -0.228962 -4.748299
v -0.842125 0.082769 -3.839929
v -0.834673 -0.228962 -3.835165
v 0.264262 0.077570 -4.751075
v 0.269249 -0.228962 -4.748299
v 0.274138 0.064379 -3.838089
v 0.269249 -0.228962 -3.835165
v -0.274138 0.068992 -4.745375
v -0.269249 -0.228962 -4.748299
v -0.264262 0.055800 -3.832389
v -0.269249 -0.228962 -3.835165
v 0.828214 0.081304 -4.751815
v 0.834673 -0.228962 -4.748299
v 0.841010 0.043694 -3.839545
v 0.834673 -0.228962 -3.835165
v 0.289838 0.089677 -4.743918
v 0.296174 -0.228962 -4.748299
v 0.302634 0.052066 -3.831649
v 0.296174 -0.228962 -3.835165
v 1.400097 0.066685 -4.748299
v 1.400097 -0.228962 -4.748299
v 1.400097 0.066685 -3.835165
v 1.400097 -0.228962 -3.835165
v 0.861598 0.066685 -4.748299
v 0.861598 -0.228962 -4.748299
v 0.861598 0.066685 -3.835165
v 0.861598 -0.228962 -3.835165
v -0.861598 0.066685 -5.746073
v -0.861598 -0.228962 -5.746073
v -0.861598 0.066685 -4.832938
v -0.861598 -0.228962 -4.832938
v -1.400097 0.066685 -5.746073
v -1.400097 -0.228962 -5.746073
v -1.400097 0.066685 -4.832938
v -1.400097 -0.228962 -4.832938
v -0.289899 0.049865 -5.703019
v -0.296174 -0.228962 -5.707090
v -0.305097 0.030753 -4.790211
v -0.296174 -0.228962 -4.793956
v -0.825751 0.102618 -5.710835
v -0.834673 -0.228962 -5.707090
v -0.840949 0.083505 -4.798028
v -0.834673 -0.228962 -4.793956
v 0.269249 0.066685 -5.707090
v 0.269249 -0.228962 -5.707090
v 0.269249 0.066685 -4.793956
v 0.269249 -0.228962 -4.793956
v -0.269249 0.066685 -5.707090
v -0.269249 -0.228962 -5.707090
v -0.269249 0.066685 -4.793956
v -0.269249 -0.228962 -4.793956
v 0.831838 0.057939 -5.771461
v 0.834673 -0.228962 -5.769885
v 0.837332 0.062004 -4.858352
v 0.834673 -0.228962 -4.856750
v 0.293516 0.071367 -5.768282
v 0.296174 -0.228962 -5.769885
v 0.299010 0.075432 -4.855173
v 0.296174 -0.228962 -4.856750
v 1.397616 0.072154 -5.708512
v 1.400097 -0.228962 -5.707090
v 1.402281 0.078880 -4.795414
v 1.400097 -0.228962 -4.793956
v 0.859414 0.054491 -5.705632
v 0.861598 -0.228962 -5.707090
v 0.864080 0.061217 -4.792534
v 0.861598 -0.228962 -4.793956
vt 0.352053 0.944851
vt 0.285451 0.953235
vt 0.271233 0.840297
vt 0.337836 0.831913
vt 0.333233 0.795346
vt 0.266630 0.803731
vt 0.234667 0.844900
vt 0.248884 0.957838
vt 0.388619 0.940248
vt 0.374402 0.827310
vt 0.290054 0.989801
vt 0.356656 0.981417
vt 0.702308 0.646683
vt 0.709545 0.713420
vt 0.596379 0.725692
vt 0.589142 0.658955
vt 0.551990 0.662040
vt 0.558076 0.728892
vt 0.601006 0.763848
vt 0.713939 0.749587
vt 0.699313 0.611534
vt 0.585949 0.621811
vt 0.745728 0.709162
vt 0.737343 0.642560
vt 0.911043 0.808046
vt 0.919427 0.874648
vt 0.806489 0.888865
vt 0.798105 0.822263
vt 0.761538 0.826866
vt 0.769923 0.893468
vt 0.811092 0.925432
vt 0.924030 0.911215
vt 0.906440 0.771479
vt 0.793502 0.785697
vt 0.955993 0.870045
vt 0.947609 0.803443
vt 0.104590 0.085061
vt 0.116168 0.151184
vt 0.004044 0.170817
vt -0.007534 0.104695
vt -0.050050 0.115242
vt -0.035285 0.180727
vt 0.015203 0.209810
vt 0.125007 0.179806
vt 0.101471 0.052022
vt -0.011995 0.061118
vt 0.145758 0.146512
vt 0.137373 0.079910
vt 0.163537 0.979398
vt 0.096935 0.987782
vt 0.082718 0.874844
vt 0.149320 0.866460
vt 0.144717 0.829894
vt 0.078115 0.838278
vt 0.046152 0.879447
vt 0.060369 0.992386
vt 0.200104 0.974795
vt 0.185887 0.861857
vt 0.101538 1.024349
vt 0.168141 1.015965
vt 0.579396 0.583365
vt 0.570350 0.516849
vt 0.683141 0.501509
vt 0.692187 0.568025
vt 0.726883 0.563142
vt 0.718499 0.496540
vt 0.678970 0.466049
vt 0.565816 0.478433
vt 0.585792 0.620837
vt 0.698143 0.602552
vt 0.532151 0.522948
vt 0.541860 0.589371
vt 0.475208 0.381296
vt 0.481765 0.448103
vt 0.368479 0.459221
vt 0.361923 0.392414
vt 0.327968 0.394745
vt 0.332693 0.461707
vt 0.370757 0.495022
vt 0.484350 0.487695
vt 0.470287 0.343780
vt 0.357437 0.358677
vt 0.521138 0.443212
vt 0.512753 0.376609
vt 0.390502 0.605939
vt 0.383947 0.539132
vt 0.497233 0.528016
vt 0.503788 0.594824
vt 0.539680 0.590650
vt 0.531296 0.524047
vt 0.495116 0.493788
vt 0.381557 0.501628
vt 0.395240 0.645074
vt 0.508158 0.630693
vt 0.346438 0.541432
vt 0.351158 0.608394
vt 0.915272 0.617500
vt 0.981874 0.609116
vt 0.996091 0.722054
vt 0.929489 0.730438
vt 0.934092 0.767005
vt 1.000694 0.758621
vt 1.032657 0.717451
vt 1.018440 0.604513
vt 0.878705 0.622103
vt 0.892922 0.735041
vt 0.977271 0.572550
vt 0.910668 0.580934
vt 0.408246 0.750723
vt 0.399324 0.684190
vt 0.512143 0.669061
vt 0.521065 0.735594
vt 0.556115 0.730763
vt 0.547731 0.664160
vt 0.507889 0.633390
vt 0.394774 0.646126
vt 0.414297 0.788027
vt 0.526771 0.770512
vt 0.361432 0.690003
vt 0.370891 0.756461
vt 0.206550 0.267868
vt 0.273373 0.261475
vt 0.284212 0.374787
vt 0.217389 0.381180
vt 0.223127 0.421651
vt 0.289353 0.410683
vt 0.320245 0.370720
vt 0.306028 0.257782
vt 0.169131 0.269841
vt 0.176575 0.383426
vt 0.273456 0.228612
vt 0.206352 0.230397
vt 0.226772 0.461120
vt 0.293422 0.453122
vt 0.306984 0.566141
vt 0.240333 0.574139
vt 0.246899 0.613037
vt 0.312862 0.600585
vt 0.341699 0.562173
vt 0.327482 0.449235
vt 0.188196 0.465119
vt 0.201096 0.578215
vt 0.292400 0.418857
vt 0.225363 0.422363
vt 0.177696 0.718800
vt 0.185557 0.785467
vt 0.072510 0.798796
vt 0.064649 0.732130
vt 0.029142 0.735881
vt 0.036479 0.802607
vt 0.076101 0.834851
vt 0.189341 0.823283
vt 0.172819 0.681641
vt 0.059994 0.696729
vt 0.223283 0.780871
vt 0.214899 0.714268
vt 0.916056 0.096165
vt 0.849453 0.104549
vt 0.835236 -0.008389
vt 0.901838 -0.016774
vt 0.897235 -0.053340
vt 0.830633 -0.044956
vt 0.798670 -0.003786
vt 0.812887 0.109152
vt 0.952622 0.091562
vt 0.938405 -0.021377
vt 0.854056 0.141115
vt 0.920659 0.132731
vt 0.256790 0.183730
vt 0.190416 0.193763
vt 0.173403 0.081212
vt 0.239777 0.071179
vt 0.228398 0.030856
vt 0.163491 0.047981
vt 0.139367 0.087849
vt 0.159184 0.199940
vt 0.295478 0.178244
vt 0.281261 0.065306
vt 0.192459 0.225535
vt 0.259527 0.222709
vt 0.528634 0.811774
vt 0.537018 0.878376
vt 0.424080 0.892593
vt 0.415696 0.825991
vt 0.379130 0.830594
vt 0.387514 0.897196
vt 0.428683 0.929160
vt 0.541622 0.914943
vt 0.524031 0.775207
vt 0.411093 0.789425
vt 0.573585 0.873773
vt 0.565201 0.807171
vt 0.621422 0.019015
vt 0.630765 0.085490
vt 0.518044 0.101333
vt 0.508700 0.034858
vt 0.470220 0.041095
vt 0.480521 0.107428
vt 0.524561 0.138784
vt 0.636778 0.119696
vt 0.617333 -0.016448
vt 0.504201 -0.003863
vt 0.665191 0.080897
vt 0.656806 0.014294
vt 0.455576 0.239079
vt 0.466145 0.305370
vt 0.353735 0.323291
vt 0.343167 0.257000
vt 0.307857 0.264418
vt 0.320600 0.330326
vt 0.358237 0.356865
vt 0.471178 0.342674
vt 0.447721 0.200013
vt 0.335966 0.221646
vt 0.503416 0.300096
vt 0.495032 0.233493
vt 0.695804 0.010115
vt 0.762420 0.001844
vt 0.776445 0.114806
vt 0.709829 0.123077
vt 0.715174 0.160736
vt 0.781491 0.150327
vt 0.812081 0.110643
vt 0.797864 -0.002295
vt 0.658204 0.014394
vt 0.672036 0.127380
vt 0.759725 -0.033738
vt 0.692876 -0.027614
vt 0.053699 0.655060
vt 0.046101 0.588364
vt 0.159199 0.575479
vt 0.166797 0.642176
vt 0.205535 0.637918
vt 0.197151 0.571316
vt 0.154104 0.537641
vt 0.041445 0.553926
vt 0.056282 0.690510
vt 0.169716 0.681038
vt 0.011472 0.591278
vt 0.018282 0.658060
vt 0.616193 0.332150
vt 0.549660 0.341073
vt 0.534530 0.228253
vt 0.601062 0.219330
vt 0.597349 0.183747
vt 0.530475 0.189595
vt 0.496101 0.234093
vt 0.512146 0.346786
vt 0.650728 0.327435
vt 0.636511 0.214497
vt 0.557025 0.378298
vt 0.623076 0.366319
vt 0.034631 0.509317
vt 0.027454 0.442574
vt 0.140631 0.430405
vt 0.147808 0.497148
vt 0.187692 0.493083
vt 0.179308 0.426481
vt 0.135277 0.391900
vt 0.022778 0.409252
vt 0.036169 0.544151
vt 0.149786 0.537191
vt -0.006132 0.444617
vt -0.000170 0.511480
vt 0.675414 0.209866
vt 0.741888 0.200520
vt 0.757735 0.313241
vt 0.691260 0.322586
vt 0.697533 0.358619
vt 0.763851 0.348216
vt 0.792916 0.308457
vt 0.778699 0.195519
vt 0.637704 0.216080
vt 0.655177 0.328561
vt 0.736695 0.163736
vt 0.670080 0.172021
vt 0.330895 0.125646
vt 0.321478 0.059182
vt 0.434182 0.043213
vt 0.443599 0.109677
vt 0.477226 0.104641
vt 0.468842 0.038038
vt 0.430262 0.008389
vt 0.316997 0.019703
vt 0.338337 0.163612
vt 0.450288 0.143015
vt 0.282362 0.066154
vt 0.292812 0.132463
vt 0.897060 0.295322
vt 0.830458 0.303706
vt 0.816240 0.190768
vt 0.882843 0.182383
vt 0.878240 0.145817
vt 0.811637 0.154201
vt 0.779674 0.195371
vt 0.793891 0.308309
vt 0.933626 0.290718
vt 0.919409 0.177780
vt 0.835061 0.340272
vt 0.901663 0.331888
vt 0.855378 0.739768
vt 0.788775 0.748152
vt 0.774558 0.635214
vt 0.841161 0.626830
vt 0.836558 0.590263
vt 0.769955 0.598648
vt 0.737992 0.639817
vt 0.752209 0.752755
vt 0.891944 0.735165
vt 0.877727 0.622227
vt 0.793378 0.784718
vt 0.859981 0.776334
vt 0.089576 0.356445
vt 0.022813 0.363439
vt 0.010953 0.250229
vt 0.077716 0.243235
vt 0.078625 0.210849
vt 0.011498 0.211270
vt -0.027914 0.252968
vt -0.018433 0.366402
vt 0.124134 0.352606
vt 0.109917 0.239668
vt 0.030043 0.404153
vt 0.095800 0.390654
vt 0.717309 0.787347
vt 0.725693 0.853949
vt 0.612755 0.868166
vt 0.604370 0.801564
vt 0.567804 0.806167
vt 0.576188 0.872769
vt 0.617358 0.904733
vt 0.730296 0.890516
vt 0.712705 0.750780
vt 0.599767 0.764998
vt 0.762259 0.849346
vt 0.753875 0.782744
vt 0.832850 0.551727
vt 0.766286 0.560407
vt 0.751566 0.447534
vt 0.818131 0.438853
vt 0.814009 0.402815
vt 0.747249 0.409833
vt 0.713987 0.452805
vt 0.729209 0.565612
vt 0.868312 0.547063
vt 0.854095 0.434125
vt 0.772380 0.597349
vt 0.838707 0.587011
vt 0.328570 0.757111
vt 0.262031 0.765985
vt 0.246983 0.653155
vt 0.313522 0.644280
vt 0.306934 0.606474
vt 0.240722 0.617526
vt 0.211187 0.658378
vt 0.227066 0.771095
vt 0.365792 0.752245
vt 0.351575 0.639307
vt 0.265822 0.801118
vt 0.332617 0.794430
vn 0.0000 1.0000 0.0000
vn 0.0000 0.0000 1.0000
vn -1.0000 0.0000 0.0000
vn 1.0000 0.0000 0.0000
vn 0.0000 0.0000 -1.0000
vn 0.0173 0.9997 -0.0175
vn -0.0027 0.0002 1.0000
vn -1.0000 0.0001 -0.0026
vn 1.0000 0.0001 0.0025
vn 0.0027 0.0002 -1.0000
vn -0.0501 0.9945 -0.0923
vn 0.0107 0.0058 0.9999
vn -1.0000 0.0012 0.0085
vn 1.0000 0.0011 -0.0086
vn -0.0110 0.0078 -0.9999
vn 0.0102 0.9996 0.0261
vn 0.0046 0.0005 1.0000
vn -1.0000 0.0000 0.0045
vn 1.0000 0.0000 -0.0045
vn -0.0046 0.0005 -1.0000
vn 0.0283 0.9991 0.0327
vn 0.0272 0.0009 0.9996
vn -0.9996 0.0003 0.0267
vn 0.9996 0.0004 -0.0267
vn -0.0272 0.0008 -0.9996
vn -0.0276 0.9992 0.0287
vn -0.0033 0.0007 1.0000
vn -1.0000 0.0004 -0.0029
vn 1.0000 0.0003 0.0029
vn 0.0033 0.0006 -1.0000
vn 0.0082 0.9997 0.0211
vn 0.0037 0.0004 1.0000
vn -1.0000 0.0000 0.0037
vn 1.0000 0.0000 -0.0036
vn -0.0037 0.0003 -1.0000
vn -0.0683 0.9972 -0.0309
vn -0.0067 0.0007 1.0000
vn -1.0000 0.0023 -0.0077
vn 1.0000 0.0020 0.0077
vn 0.0066 0.0008 -1.0000
vn -0.0670 0.9977 -0.0066
vn -0.0059 0.0000 1.0000
vn -1.0000 0.0022 -0.0061
vn 1.0000 0.0019 0.0061
vn 0.0059 0.0000 -1.0000
vn 0.0078 0.9998 0.0156
vn -0.0013 0.0002 1.0000
vn -1.0000 0.0000 -0.0013
vn 1.0000 0.0000 0.0013
vn 0.0013 0.0002 -1.0000
vn -0.1082 0.9939 -0.0230
vn 0.0093 0.0004 1.0000
vn -1.0000 0.0059 0.0079
vn 1.0000 0.0048 -0.0080
vn -0.0093 0.0005 -1.0000
vn -0.0146 0.9995 -0.0288
vn 0.0025 0.0006 1.0000
vn -1.0000 0.0001 0.0023
vn 1.0000 0.0001 -0.0023
vn -0.0025 0.0007 -1.0000
vn -0.0345 0.9989 0.0314
vn -0.0561 0.0009 0.9984
vn -0.9985 0.0005 -0.0555
vn 0.9985 0.0005 0.0555
vn 0.0561 0.0008 -0.9984
vn -0.0321 0.9995 -0.0020
vn -0.0047 0.0000 1.0000
vn -1.0000 0.0005 -0.0048
vn 1.0000 0.0005 0.0048
vn 0.0047 0.0000 -1.0000
vn -0.0115 0.9995 -0.0302
vn -0.0052 0.0007 1.0000
vn -1.0000 0.0001 -0.0054
vn 1.0000 0.0001 0.0054
vn 0.0052 0.0007 -1.0000
vn 0.0460 0.9989 -0.0086
vn 0.0054 0.0001 1.0000
vn -1.0000 0.0009 0.0056
vn 1.0000 0.0010 -0.0056
vn -0.0054 0.0001 -1.0000
vn -0.0174 0.9988 -0.0462
vn -0.0079 0.0015 1.0000
vn -1.0000 0.0001 -0.0083
vn 1.0000 0.0001 0.0082
vn 0.0078 0.0018 -1.0000
vn -0.0158 0.9998 0.0146
vn 0.0053 0.0002 1.0000
vn -1.0000 0.0001 0.0054
vn 1.0000 0.0001 -0.0054
vn -0.0053 0.0002 -1.0000
vn 0.0161 0.9990 0.0410
vn 0.0073 0.0014 1.0000
vn -1.0000 0.0001 0.0070
vn 1.0000 0.0001 -0.0070
vn -0.0073 0.0012 -1.0000
vn 0.0976 0.9950 0.0225
vn -0.0073 0.0004 1.0000
vn -1.0000 0.0040 -0.0083
vn 1.0000 0.0048 0.0084
vn 0.0073 0.0004 -1.0000
vn 0.0249 0.9997 -0.0046
vn 0.0030 0.0000 1.0000
vn -1.0000 0.0003 0.0030
vn 1.0000 0.0003 -0.0030
vn -0.0030 0.0000 -1.0000
vn -0.0328 0.9994 -0.0072
vn 0.0027 0.0000 1.0000
vn -1.0000 0.0005 0.0026
vn 1.0000 0.0005 -0.0026
vn -0.0027 0.0000 -1.0000
usemtl Material
s off
f 1/1/1 5/2/1 7/3/1 3/4/1
f 4/5/2 3/4/2 7/3/2 8/6/2
f 8/7/3 7/3/3 5/2/3 6/8/3
f 2/9/4 1/1/4 3/4/4 4/10/4
f 6/11/5 5/2/5 1/1/5 2/12/5
f 9/13/6 13/14/6 15/15/6 11/16/6
f 12/17/7 11/16/7 15/15/7 16/18/7
f 16/19/8 15/15/8 13/14/8 14/20/8
f 10/21/9 9/13/9 11/16/9 12/22/9
f 14/23/10 13/14/10 9/13/10 10/24/10
f 17/25/1 21/26/1 23/27/1 19/28/1
f 20/29/2 19/28/2 23/27/2 24/30/2
f 24/31/3 23/27/3 21/26/3 22/32/3
f 18/33/4 17/25/4 19/28/4 20/34/4
f 22/35/5 21/26/5 17/25/5 18/36/5
f 25/37/11 29/38/11 31/39/11 27/40/11
f 28/41/12 27/40/12 31/39/12 32/42/12
f 32/43/13 31/39/13 29/38/13 30/44/13
f 26/45/14 25/37/14 27/40/14 28/46/14
f 30/47/15 29/38/15 25/37/15 26/48/15
f 33/49/1 37/50/1 39/51/1 35/52/1
f 36/53/2 35/52/2 39/51/2 40/54/2
f 40/55/3 39/51/3 37/50/3 38/56/3
f 34/57/4 33/49/4 35/52/4 36/58/4
f 38/59/5 37/50/5 33/49/5 34/60/5
f 41/61/16 45/62/16 47/63/16 43/64/16
f 44/65/17 43/64/17 47/63/17 48/66/17
f 48/67/18 47/63/18 45/62/18 46/68/18
f 42/69/19 41/61/19 43/64/19 44/70/19
f 46/71/20 45/62/20 41/61/20 42/72/20
f 49/73/21 53/74/21 55/75/21 51/76/21
f 52/77/22 51/76/22 55/75/22 56/78/22
f 56/79/23 55/75/23 53/74/23 54/80/23
f 50/81/24 49/73/24 51/76/24 52/82/24
f 54/83/25 53/74/25 49/73/25 50/84/25
f 57/85/26 61/86/26 63/87/26 59/88/26
f 60/89/27 59/88/27 63/87/27 64/90/27
f 64/91/28 63/87/28 61/86/28 62/92/28
f 58/93/29 57/85/29 59/88/29 60/94/29
f 62/95/30 61/86/30 57/85/30 58/96/30
f 65/97/1 69/98/1 71/99/1 67/100/1
f 68/101/2 67/100/2 71/99/2 72/102/2
f 72/103/3 71/99/3 69/98/3 70/104/3
f 66/105/4 65/97/4 67/100/4 68/106/4
f 70/107/5 69/98/5 65/97/5 66/108/5
f 73/109/31 77/110/31 79/111/31 75/112/31
f 76/113/32 75/112/32 79/111/32 80/114/32
f 80/115/33 79/111/33 77/110/33 78/116/33
f 74/117/34 73/109/34 75/112/34 76/118/34
f 78/119/35 77/110/35 73/109/35 74/120/35
f 81/121/36 85/122/36 87/123/36 83/124/36
f 84/125/37 83/124/37 87/123/37 88/126/37
f 88/127/38 87/123/38 85/122/38 86/128/38
f 82/129/39 81/121/39 83/124/39 84/130/39
f 86/131/40 85/122/40 81/121/40 82/132/40
f 89/133/41 93/134/41 95/135/41 91/136/41
f 92/137/42 91/136/42 95/135/42 96/138/42
f 96/139/43 95/135/43 93/134/43 94/140/43
f 90/141/44 89/133/44 91/136/44 92/142/44
f 94/143/45 93/134/45 89/133/45 90/144/45
f 97/145/46 101/146/46 103/147/46 99/148/46
f 100/149/47 99/148/47 103/147/47 104/150/47
f 104/151/48 103/147/48 101/146/48 102/152/48
f 98/153/49 97/145/49 99/148/49 100/154/49
f 102/155/50 101/146/50 97/145/50 98/156/50
f 105/157/1 109/158/1 111/159/1 107/160/1
f 108/161/2 107/160/2 111/159/2 112/162/2
f 112/163/3 111/159/3 109/158/3 110/164/3
f 106/165/4 105/157/4 107/160/4 108/166/4
f 110/167/5 109/158/5 105/157/5 106/168/5
f 113/169/51 117/170/51 119/171/51 115/172/51
f 116/173/52 115/172/52 119/171/52 120/174/52
f 120/175/53 119/171/53 117/170/53 118/176/53
f 114/177/54 113/169/54 115/172/54 116/178/54
f 118/179/55 117/170/55 113/169/55 114/180/55
f 121/181/1 125/182/1 127/183/1 123/184/1
f 124/185/2 123/184/2 127/183/2 128/186/2
f 128/187/3 127/183/3 125/182/3 126/188/3
f 122/189/4 121/181/4 123/184/4 124/190/4
f 126/191/5 125/182/5 121/181/5 122/192/5
f 129/193/56 133/194/56 135/195/56 131/196/56
f 132/197/57 131/196/57 135/195/57 136/198/57
f 136/199/58 135/195/58 133/194/58 134/200/58
f 130/201/59 129/193/59 131/196/59 132/202/59
f 134/203/60 133/194/60 129/193/60 130/204/60
f 137/205/61 141/206/61 143/207/61 139/208/61
f 140/209/62 139/208/62 143/207/62 144/210/62
f 144/211/63 143/207/63 141/206/63 142/212/63
f 138/213/64 137/205/64 139/208/64 140/214/64
f 142/215/65 141/206/65 137/205/65 138/216/65
f 145/217/66 149/218/66 151/219/66 147/220/66
f 148/221/67 147/220/67 151/219/67 152/222/67
f 152/223/68 151/219/68 149/218/68 150/224/68
f 146/225/69 145/217/69 147/220/69 148/226/69
f 150/227/70 149/218/70 145/217/70 146/228/70
f 153/229/71 157/230/71 159/231/71 155/232/71
f 156/233/72 155/232/72 159/231/72 160/234/72
f 160/235/73 159/231/73 157/230/73 158/236/73
f 154/237/74 153/229/74 155/232/74 156/238/74
f 158/239/75 157/230/75 153/229/75 154/240/75
f 161/241/76 165/242/76 167/243/76 163/244/76
f 164/245/77 163/244/77 167/243/77 168/246/77
f 168/247/78 167/243/78 165/242/78 166/248/78
f 162/249/79 161/241/79 163/244/79 164/250/79
f 166/251/80 165/242/80 161/241/80 162/252/80
f 169/253/81 173/254/81 175/255/81 171/256/81
f 172/257/82 171/256/82 175/255/82 176/258/82
f 176/259/83 175/255/83 173/254/83 174/260/83
f 170/261/84 169/253/84 171/256/84 172/262/84
f 174/263/85 173/254/85 169/253/85 170/264/85
f 177/265/86 181/266/86 183/267/86 179/268/86
f 180/269/87 179/268/87 183/267/87 184/270/87
f 184/271/88 183/267/88 181/266/88 182/272/88
f 178/273/89 177/265/89 179/268/89 180/274/89
f 182/275/90 181/266/90 177/265/90 178/276/90
f 185/277/91 189/278/91 191/279/91 187/280/91
f 188/281/92 187/280/92 191/279/92 192/282/92
f 192/283/93 191/279/93 189/278/93 190/284/93
f 186/285/94 185/277/94 187/280/94 188/286/94
f 190/287/95 189/278/95 185/277/95 186/288/95
f 193/289/1 197/290/1 199/291/1 195/292/1
f 196/293/2 195/292/2 199/291/2 200/294/2
f 200/295/3 199/291/3 197/290/3 198/296/3
f 194/297/4 193/289/4 195/292/4 196/298/4
f 198/299/5 197/290/5 193/289/5 194/300/5
f 201/301/1 205/302/1 207/303/1 203/304/1
f 204/305/2 203/304/2 207/303/2 208/306/2
f 208/307/3 207/303/3 205/302/3 206/308/3
f 202/309/4 201/301/4 203/304/4 204/310/4
f 206/311/5 205/302/5 201/301/5 202/312/5
f 209/313/96 213/314/96 215/315/96 211/316/96
f 212/317/97 211/316/97 215/315/97 216/318/97
f 216/319/98 215/315/98 213/314/98 214/320/98
f 210/321/99 209/313/99 211/316/99 212/322/99
f 214/323/100 213/314/100 209/313/100 210/324/100
f 217/325/1 221/326/1 223/327/1 219/328/1
f 220/329/2 219/328/2 223/327/2 224/330/2
f 224/331/3 223/327/3 221/326/3 222/332/3
f 218/333/4 217/325/4 219/328/4 220/334/4
f 222/335/5 221/326/5 217/325/5 218/336/5
f 225/337/101 229/338/101 231/339/101 227/340/101
f 228/341/102 227/340/102 231/339/102 232/342/102
f 232/343/103 231/339/103 229/338/103 230/344/103
f 226/345/104 225/337/104 227/340/104 228/346/104
f 230/347/105 229/338/105 225/337/105 226/348/105
f 233/349/106 237/350/106 239/351/106 235/352/106
f 236/353/107 235/352/107 239/351/107 240/354/107
f 240/355/108 239/351/108 237/350/108 238/356/108
f 234/357/109 233/349/109 235/352/109 236/358/109
f 238/359/110 237/350/110 233/349/110 234/360/110
