# Blender v2.91.2 OBJ File: ''
# www.blender.org
mtllib LowPolySphere (Inverted).mtl
o Sphere
v 0.000000 -0.866025 -0.500000
v 0.000000 -0.500000 -0.866025
v 0.509037 -0.500000 -0.700629
v 0.293893 -0.866025 -0.404509
v 0.000000 0.000000 -1.000000
v 0.000000 0.500000 -0.866025
v 0.509037 0.500000 -0.700629
v 0.587785 0.000000 -0.809017
v 0.000000 0.866025 -0.500000
v 0.000000 1.000000 0.000000
v 0.293893 0.866025 -0.404509
v 0.000000 -1.000000 -0.000000
v 0.475528 0.866025 -0.154509
v 0.475528 -0.866025 -0.154509
v 0.951056 0.000000 -0.309017
v 0.823639 -0.500000 -0.267617
v 0.823639 0.500000 -0.267617
v 0.475528 -0.866025 0.154508
v 0.951056 -0.000000 0.309017
v 0.823639 -0.500000 0.267616
v 0.475528 0.866025 0.154508
v 0.823639 0.500000 0.267616
v 0.293893 -0.866025 0.404508
v 0.587785 -0.000000 0.809017
v 0.509037 -0.500000 0.700629
v 0.293893 0.866025 0.404508
v 0.509037 0.500000 0.700629
v 0.000000 -0.866025 0.500000
v 0.000000 -0.000000 1.000000
v 0.000000 -0.500000 0.866025
v 0.000000 0.866025 0.500000
v 0.000000 0.500000 0.866025
v -0.587785 -0.000000 0.809017
v -0.509037 -0.500000 0.700629
v -0.293893 0.866025 0.404508
v -0.509037 0.500000 0.700629
v -0.293893 -0.866025 0.404508
v -0.475528 0.866025 0.154508
v -0.823639 0.500000 0.267616
v -0.823639 -0.500000 0.267616
v -0.475528 -0.866025 0.154508
v -0.951056 -0.000000 0.309017
v -0.823639 -0.500000 -0.267617
v -0.475528 -0.866025 -0.154509
v -0.823639 0.500000 -0.267617
v -0.951056 0.000000 -0.309017
v -0.475528 0.866025 -0.154509
v -0.509037 -0.500000 -0.700629
v -0.293893 -0.866025 -0.404509
v -0.509037 0.500000 -0.700629
v -0.587785 0.000000 -0.809017
v -0.293893 0.866025 -0.404508
vn 0.0000 0.8438 0.5367
vn -0.3155 0.8438 0.4342
vn -0.5159 0.4791 0.7101
vn -0.0000 0.4791 0.8778
vn 0.0000 -0.0000 1.0000
vn -0.5878 -0.0000 0.8090
vn -0.5159 -0.4791 0.7101
vn 0.0000 -0.4791 0.8778
vn 0.0000 -0.8438 0.5367
vn -0.3155 -0.8438 0.4342
vn 0.0000 -1.0000 -0.0000
vn -0.0000 1.0000 -0.0000
vn -0.5104 -0.8438 0.1659
vn -0.5104 0.8438 0.1659
vn -0.8348 0.4791 0.2712
vn -0.9511 -0.0000 0.3090
vn -0.8348 -0.4791 0.2712
vn -0.5104 0.8438 -0.1659
vn -0.8348 0.4791 -0.2712
vn -0.9511 -0.0000 -0.3090
vn -0.8348 -0.4791 -0.2712
vn -0.5104 -0.8438 -0.1659
vn -0.3155 0.8438 -0.4342
vn -0.5159 0.4791 -0.7101
vn -0.5878 0.0000 -0.8090
vn -0.5159 -0.4791 -0.7101
vn -0.3155 -0.8438 -0.4342
vn 0.0000 0.8438 -0.5367
vn 0.0000 0.4791 -0.8778
vn 0.0000 0.0000 -1.0000
vn 0.0000 -0.4791 -0.8778
vn 0.0000 -0.8438 -0.5367
vn 0.5159 0.4791 -0.7101
vn 0.5878 0.0000 -0.8090
vn 0.5159 -0.4791 -0.7101
vn 0.3155 -0.8438 -0.4342
vn 0.3155 0.8438 -0.4342
vn 0.8348 -0.4791 -0.2712
vn 0.5104 -0.8438 -0.1659
vn 0.5104 0.8438 -0.1659
vn 0.8348 0.4791 -0.2712
vn 0.9511 0.0000 -0.3090
vn 0.5104 0.8438 0.1659
vn 0.8348 0.4791 0.2712
vn 0.9511 -0.0000 0.3090
vn 0.8348 -0.4791 0.2712
vn 0.5104 -0.8438 0.1659
vn 0.3155 0.8438 0.4342
vn 0.5159 0.4791 0.7101
vn 0.5878 -0.0000 0.8090
vn 0.5159 -0.4791 0.7101
vn 0.3155 -0.8438 0.4342
usemtl None
s 1
f 1//1 4//2 3//3 2//4
f 5//5 8//6 7//7 6//8
f 9//9 11//10 10//11
f 12//12 4//2 1//1
f 2//4 3//3 8//6 5//5
f 6//8 7//7 11//10 9//9
f 11//10 13//13 10//11
f 12//12 14//14 4//2
f 3//3 16//15 15//16 8//6
f 7//7 17//17 13//13 11//10
f 4//2 14//14 16//15 3//3
f 8//6 15//16 17//17 7//7
f 12//12 18//18 14//14
f 16//15 20//19 19//20 15//16
f 17//17 22//21 21//22 13//13
f 14//14 18//18 20//19 16//15
f 15//16 19//20 22//21 17//17
f 13//13 21//22 10//11
f 12//12 23//23 18//18
f 20//19 25//24 24//25 19//20
f 22//21 27//26 26//27 21//22
f 18//18 23//23 25//24 20//19
f 19//20 24//25 27//26 22//21
f 21//22 26//27 10//11
f 12//12 28//28 23//23
f 25//24 30//29 29//30 24//25
f 27//26 32//31 31//32 26//27
f 23//23 28//28 30//29 25//24
f 24//25 29//30 32//31 27//26
f 26//27 31//32 10//11
f 30//29 34//33 33//34 29//30
f 32//31 36//35 35//36 31//32
f 28//28 37//37 34//33 30//29
f 29//30 33//34 36//35 32//31
f 31//32 35//36 10//11
f 12//12 37//37 28//28
f 36//35 39//38 38//39 35//36
f 37//37 41//40 40//41 34//33
f 33//34 42//42 39//38 36//35
f 35//36 38//39 10//11
f 12//12 41//40 37//37
f 34//33 40//41 42//42 33//34
f 41//40 44//43 43//44 40//41
f 42//42 46//45 45//46 39//38
f 38//39 47//47 10//11
f 12//12 44//43 41//40
f 40//41 43//44 46//45 42//42
f 39//38 45//46 47//47 38//39
f 44//43 49//48 48//49 43//44
f 46//45 51//50 50//51 45//46
f 47//47 52//52 10//11
f 12//12 49//48 44//43
f 43//44 48//49 51//50 46//45
f 45//46 50//51 52//52 47//47
f 49//48 1//1 2//4 48//49
f 51//50 5//5 6//8 50//51
f 52//52 9//9 10//11
f 12//12 1//1 49//48
f 48//49 2//4 5//5 51//50
f 50//51 6//8 9//9 52//52
